<svg width="525" height="145" 
    xmlns="http://www.w3.org/2000/svg">
    <g id="title">
        <path transform="translate(0,355) " d="m77.336079,-353.191075l-10.36,0l-64.959999,141.119998l11.2,0l58.799999,-129.919998l59.079999,129.919998l11.2,0l-64.959999,-141.119998z" id="path150765"/>
        <path transform="translate(0,355) " d="m231.616137,-281.791076l60.759999,69.719999l12.6,0l-66.359999,-76.999999l62.159999,-64.119999l-12.6,0l-88.199998,90.719998l0,-90.719998l-10.36,0l0,141.119998l10.36,0l0,-36.959999l31.639999,-32.759999z" id="path150767"/>
        <path transform="translate(0,355) " d="m399.516189,-353.191075l-10.36,0l-64.959999,141.119998l11.2,0l58.799999,-129.919998l59.079999,129.919998l11.2,0l-64.959999,-141.119998z" id="path150769"/>
        <path transform="translate(0,355) " d="m511.896107,-353.191075l0,141.119998l10.36,0l0,-141.119998l-10.36,0z" id="path150771"/>
    </g>
</svg>